<svg xmlns="http://www.w3.org/2000/svg" xmlns:xlink="http://www.w3.org/1999/xlink" width="500" zoomAndPan="magnify" viewBox="0 0 375 374.999991" height="500" preserveAspectRatio="xMidYMid meet" version="1.0"><defs><clipPath id="a3005f58f7"><path d="M 99.328125 66.75 L 275.578125 66.75 L 275.578125 291.75 L 99.328125 291.75 Z M 99.328125 66.75 " clip-rule="nonzero"/></clipPath></defs><g clip-path="url(#a3005f58f7)"><path fill="#d78b30" d="M 104.359375 286.746094 L 270.636719 286.746094 L 270.636719 71.601562 L 104.359375 71.601562 Z M 273.09375 291.65625 L 101.90625 291.65625 C 100.550781 291.65625 99.449219 290.558594 99.449219 289.203125 L 99.449219 69.148438 C 99.449219 67.792969 100.546875 66.691406 101.90625 66.691406 L 273.09375 66.691406 C 274.449219 66.691406 275.546875 67.792969 275.546875 69.148438 L 275.550781 289.203125 C 275.550781 290.558594 274.449219 291.660156 273.09375 291.65625 Z M 273.09375 291.65625 " fill-opacity="1" fill-rule="evenodd"/></g><path fill="#d78b30" d="M 253.921875 225.183594 L 121.078125 225.183594 C 119.722656 225.183594 118.621094 224.085938 118.621094 222.730469 C 118.621094 221.371094 119.71875 220.273438 121.074219 220.273438 L 253.921875 220.273438 C 255.277344 220.273438 256.378906 221.371094 256.378906 222.730469 C 256.378906 224.085938 255.277344 225.183594 253.921875 225.183594 Z M 253.921875 225.183594 " fill-opacity="1" fill-rule="evenodd"/><path fill="#d78b30" d="M 253.921875 242.070312 L 121.078125 242.070312 C 119.722656 242.070312 118.621094 240.96875 118.621094 239.613281 C 118.621094 238.257812 119.71875 237.160156 121.074219 237.160156 L 253.921875 237.15625 C 255.277344 237.15625 256.378906 238.257812 256.378906 239.613281 C 256.378906 240.96875 255.277344 242.070312 253.921875 242.070312 Z M 253.921875 242.070312 " fill-opacity="1" fill-rule="evenodd"/><path fill="#d78b30" d="M 125.988281 89.722656 C 124.632812 89.722656 123.53125 90.824219 123.53125 92.179688 L 123.53125 139.917969 C 123.53125 141.269531 124.628906 142.375 125.988281 142.375 L 173.722656 142.371094 C 175.078125 142.371094 176.183594 141.273438 176.183594 139.917969 L 176.183594 92.179688 C 176.183594 90.824219 175.078125 89.722656 173.722656 89.722656 Z M 173.722656 147.285156 L 125.988281 147.285156 C 121.925781 147.285156 118.617188 143.980469 118.617188 139.917969 L 118.621094 92.179688 C 118.621094 88.117188 121.925781 84.8125 125.988281 84.8125 L 173.722656 84.808594 C 177.789062 84.808594 181.09375 88.117188 181.09375 92.179688 L 181.097656 139.917969 C 181.097656 143.980469 177.789062 147.285156 173.722656 147.285156 Z M 173.722656 147.285156 " fill-opacity="1" fill-rule="evenodd"/><path fill="#d78b30" d="M 169.046875 147.285156 C 167.683594 147.285156 166.589844 146.183594 166.589844 144.828125 L 166.589844 136.867188 C 166.589844 133.828125 164.117188 131.359375 161.078125 131.359375 L 156.609375 131.359375 C 154.632812 132.726562 152.269531 133.46875 149.855469 133.46875 C 147.445312 133.46875 145.082031 132.726562 143.105469 131.359375 L 138.632812 131.359375 C 135.59375 131.359375 133.125 133.828125 133.125 136.867188 L 133.125 144.828125 C 133.125 146.183594 132.023438 147.285156 130.667969 147.285156 C 129.3125 147.285156 128.210938 146.183594 128.210938 144.828125 L 128.214844 136.867188 C 128.214844 131.121094 132.886719 126.449219 138.632812 126.449219 L 143.921875 126.445312 C 144.488281 126.445312 145.035156 126.644531 145.472656 127 C 146.722656 128.019531 148.238281 128.558594 149.855469 128.558594 C 151.476562 128.558594 152.988281 128.019531 154.238281 127 C 154.679688 126.640625 155.226562 126.449219 155.789062 126.449219 L 161.078125 126.445312 C 166.828125 126.445312 171.5 131.121094 171.5 136.867188 L 171.503906 144.828125 C 171.503906 146.183594 170.402344 147.285156 169.046875 147.285156 Z M 169.046875 147.285156 " fill-opacity="1" fill-rule="evenodd"/><path fill="#d78b30" d="M 149.855469 105.457031 C 146.027344 105.457031 142.910156 108.574219 142.910156 112.402344 C 142.910156 116.230469 146.027344 119.347656 149.855469 119.347656 C 153.6875 119.347656 156.800781 116.230469 156.800781 112.402344 C 156.800781 108.570312 153.6875 105.457031 149.855469 105.457031 Z M 149.855469 124.257812 C 143.316406 124.257812 138 118.941406 138 112.402344 C 138 105.863281 143.316406 100.542969 149.855469 100.542969 C 156.394531 100.542969 161.714844 105.863281 161.714844 112.402344 C 161.714844 118.941406 156.394531 124.261719 149.855469 124.261719 Z M 149.855469 124.257812 " fill-opacity="1" fill-rule="evenodd"/><path fill="#d78b30" d="M 245.078125 109.007812 L 197.109375 109.007812 C 195.753906 109.007812 194.652344 107.90625 194.652344 106.550781 C 194.652344 105.195312 195.753906 104.09375 197.109375 104.09375 L 245.078125 104.09375 C 246.429688 104.09375 247.53125 105.195312 247.53125 106.550781 C 247.53125 107.90625 246.429688 109.007812 245.074219 109.007812 Z M 245.078125 109.007812 " fill-opacity="1" fill-rule="evenodd"/><path fill="#d78b30" d="M 245.078125 128 L 197.109375 128 C 195.753906 128 194.652344 126.902344 194.652344 125.546875 C 194.652344 124.1875 195.753906 123.089844 197.109375 123.089844 L 245.078125 123.089844 C 246.429688 123.089844 247.53125 124.1875 247.53125 125.546875 C 247.53125 126.902344 246.429688 128 245.074219 128 Z M 245.078125 128 " fill-opacity="1" fill-rule="evenodd"/><path fill="#d78b30" d="M 207.417969 167.621094 L 147.554688 167.621094 C 146.199219 167.621094 145.097656 166.523438 145.097656 165.167969 C 145.097656 163.8125 146.195312 162.710938 147.550781 162.710938 L 207.417969 162.710938 C 208.777344 162.710938 209.875 163.8125 209.875 165.167969 C 209.875 166.523438 208.773438 167.625 207.417969 167.621094 Z M 207.417969 167.621094 " fill-opacity="1" fill-rule="evenodd"/><path fill="#d78b30" d="M 131.820312 167.621094 L 121.078125 167.621094 C 119.71875 167.621094 118.617188 166.523438 118.617188 165.167969 C 118.621094 163.8125 119.71875 162.710938 121.074219 162.710938 L 131.820312 162.710938 C 133.175781 162.710938 134.273438 163.8125 134.273438 165.167969 C 134.277344 166.523438 133.175781 167.625 131.820312 167.621094 Z M 131.820312 167.621094 " fill-opacity="1" fill-rule="evenodd"/><path fill="#d78b30" d="M 207.417969 185.273438 L 147.554688 185.273438 C 146.199219 185.273438 145.097656 184.175781 145.097656 182.820312 C 145.097656 181.464844 146.195312 180.363281 147.550781 180.363281 L 207.417969 180.363281 C 208.777344 180.363281 209.875 181.464844 209.875 182.820312 C 209.875 184.175781 208.773438 185.277344 207.417969 185.273438 Z M 207.417969 185.273438 " fill-opacity="1" fill-rule="evenodd"/><path fill="#d78b30" d="M 131.820312 185.273438 L 121.078125 185.273438 C 119.71875 185.273438 118.617188 184.175781 118.617188 182.820312 C 118.621094 181.464844 119.71875 180.363281 121.074219 180.363281 L 131.820312 180.363281 C 133.175781 180.363281 134.273438 181.464844 134.273438 182.820312 C 134.277344 184.175781 133.175781 185.277344 131.820312 185.273438 Z M 131.820312 185.273438 " fill-opacity="1" fill-rule="evenodd"/><path fill="#d78b30" d="M 207.417969 202.925781 L 147.554688 202.925781 C 146.199219 202.925781 145.097656 201.828125 145.097656 200.472656 C 145.097656 199.117188 146.195312 198.015625 147.550781 198.015625 L 207.417969 198.015625 C 208.777344 198.015625 209.875 199.117188 209.875 200.472656 C 209.875 201.828125 208.773438 202.925781 207.417969 202.925781 Z M 207.417969 202.925781 " fill-opacity="1" fill-rule="evenodd"/><path fill="#d78b30" d="M 131.820312 202.925781 L 121.078125 202.925781 C 119.71875 202.925781 118.617188 201.828125 118.617188 200.472656 C 118.621094 199.117188 119.71875 198.015625 121.074219 198.015625 L 131.820312 198.015625 C 133.175781 198.015625 134.273438 199.117188 134.273438 200.472656 C 134.277344 201.828125 133.175781 202.929688 131.820312 202.925781 Z M 131.820312 202.925781 " fill-opacity="1" fill-rule="evenodd"/><path fill="#d78b30" d="M 187.496094 258.953125 L 121.078125 258.953125 C 119.71875 258.953125 118.617188 257.855469 118.617188 256.5 C 118.621094 255.140625 119.71875 254.042969 121.074219 254.042969 L 187.496094 254.042969 C 188.851562 254.042969 189.949219 255.140625 189.949219 256.5 C 189.953125 257.855469 188.851562 258.953125 187.496094 258.953125 Z M 187.496094 258.953125 " fill-opacity="1" fill-rule="evenodd"/><path fill="#d78b30" d="M 253.921875 273.535156 L 220.148438 273.535156 C 218.792969 273.535156 217.691406 272.4375 217.691406 271.082031 C 217.691406 269.726562 218.792969 268.625 220.148438 268.625 L 253.921875 268.625 C 255.277344 268.625 256.378906 269.726562 256.378906 271.082031 C 256.378906 272.4375 255.277344 273.539062 253.921875 273.539062 Z M 253.921875 273.535156 " fill-opacity="1" fill-rule="evenodd"/></svg>